<svg width="1024" height="500" viewBox="0 0 1024 500" xmlns="http://www.w3.org/2000/svg">
  <!-- Background -->
  <rect width="1024" height="500" fill="#283d59" />

  <g transform="translate(50, 80) scale(3.5)">
    <!-- Globe: outer circle -->
    <circle cx="50" cy="50" r="40" fill="none" stroke="#5686b4" stroke-width="3.5" />
    <!-- Globe: vertical ellipse -->
    <ellipse cx="50" cy="50" rx="20" ry="40" fill="none" stroke="#5686b4" stroke-width="3.5" />
    <!-- Globe: vertical line -->
    <line x1="50" y1="10" x2="50" y2="90" stroke="#5686b4" stroke-width="3.5" />
    <!-- Globe: horizontal line -->
    <line x1="10" y1="50" x2="90" y2="50" stroke="#5686b4" stroke-width="3.5" />
    <!-- Globe: top curve -->
    <path d="M17 26Q50 40 83 26" fill="none" stroke="#5686b4" stroke-width="3.5" />
    <!-- Globe: bottom curve -->
    <path d="M17 74Q50 60 83 74" fill="none" stroke="#5686b4" stroke-width="3.5" />

    <!-- Lock -->
    <rect x="30.5" y="43" width="39" height="30" rx="5" ry="5" fill="#f6f5f6" stroke="#283d59"
      stroke-width="2.5" />
    <path d="M38.5 44 38.5 37A11.5 11.5 0 0 1 61.5 37L61.5 44" fill="none" stroke="#283d59"
      stroke-width="8" />
    <path d="M39 45 39 37A11 11 0 0 1 61 37L61 45" fill="none" stroke="#f6f5f6" stroke-width="4" />
    <circle cx="50" cy="55" r="4.3" fill="#283d59" />
    <path d="M47 65Q47 63 48.5 55 50 54 51.5 55 53 63 53 65Z" fill="#283d59" />
  </g>

  <!-- Text: right of icon -->
  <text x="430" y="230" fill="white" font-family="Arial, sans-serif" font-size="120"
    font-weight="bold">
    Webview
  </text>
  <text x="430" y="350" fill="white" font-family="Arial, sans-serif" font-size="120"
    font-weight="bold">
    Kiosk
  </text>
</svg>